# xmcd
#
# Track frame offsets: 
#        150
#        18796
#        34295
#        48863
#        64695
#        81487
#        96318
#        113799
#        127899
#        145630
#        159020
#        172505
#        187694
#        205165
#        223366
#        240423
#        254501
#        276623
#        292793
#        307485
#        322455
#
# Disc length: 4519 seconds
#
# Revision: 2
# Processed by: cddbd v1.5.2PL0 Copyright (c) Steve Scherf et al.
# Submitted via: ExactAudioCopyFreeDBPlugin 1.0
#
DISCID=2e11a515
DTITLE=Various Artist - Dovanėlė 4
DYEAR=2005
DGENRE=Pop
TTITLE0=Marijonas Mikutavičius - Pakeliui namo
TTITLE1=Delfinai - Neišeik
TTITLE2=Yva - Paukštelis
TTITLE3=Mokinukės - Vasaros ilgiuos
TTITLE4=Bavarija - Saulė saulė danguje
TTITLE5=Atlanta - Man tavęs
TTITLE6=Artas - All I know (summer mix)
TTITLE7=Kastaneda - Viskas ko reikia
TTITLE8=Mantas - Gyvename kartą
TTITLE9=C Stones - L.O.V.E.
TTITLE10=ŽAS - Man be tavęs liūdna
TTITLE11=Luka - Super mergina
TTITLE12=Onsa - Don't let me die
TTITLE13=Funky - Tarp krentančių žvaigždžių
TTITLE14=Exem - Aš turiu tave
TTITLE15=Saulės Kliošas - Discoholic
TTITLE16=G&G Sindikatas - Muzika kuri saugo
TTITLE17=Sel - Tūkstantis dienų
TTITLE18=Milano - Nieko nereikia daugiau
TTITLE19=Indrė - Šalta šalta
TTITLE20=Andrius Bravo - Jūra tau sukūre bangas
EXTD=
EXTT0=
EXTT1=
EXTT2=
EXTT3=
EXTT4=
EXTT5=
EXTT6=
EXTT7=
EXTT8=
EXTT9=
EXTT10=
EXTT11=
EXTT12=
EXTT13=
EXTT14=
EXTT15=
EXTT16=
EXTT17=
EXTT18=
EXTT19=
EXTT20=
PLAYORDER=
